<?xml version="1.0" encoding="iso-8859-1"?>
<!-- Generator: Adobe Illustrator 19.0.0, SVG Export Plug-In . SVG Version: 6.00 Build 0)  -->
<svg version="1.1" id="Capa_1" xmlns="http://www.w3.org/2000/svg" xmlns:xlink="http://www.w3.org/1999/xlink" x="0px" y="0px"
	 viewBox="0 0 496 496" style="enable-background:new 0 0 496 496;" xml:space="preserve">
<g>
	<g>
		<g>
			<path d="M248,0C111.033,0,0,111.033,0,248s111.033,248,248,248c136.901-0.159,247.841-111.099,248-248
				C496,111.033,384.967,0,248,0z M248,480C119.87,480,16,376.13,16,248S119.87,16,248,16c128.072,0.141,231.859,103.928,232,232
				C480,376.13,376.13,480,248,480z"/>
			<path d="M248,48C137.543,48,48,137.543,48,248s89.543,200,200,200c110.406-0.123,199.877-89.594,200-200
				C448,137.543,358.457,48,248,48z M248,432c-101.62,0-184-82.38-184-184S146.38,64,248,64c101.573,0.115,183.885,82.427,184,184
				C432,349.62,349.62,432,248,432z"/>
			<path d="M340.112,241.28l-135.768-87.768c-1.295-0.837-2.804-1.283-4.346-1.282c-4.418,0.001-7.999,3.584-7.998,8.002v175.536
				c0,4.418,3.582,8,8,8c1.541,0.001,3.049-0.444,4.344-1.28l135.768-87.768c0.953-0.615,1.764-1.426,2.379-2.379
				C344.889,248.629,343.823,243.677,340.112,241.28z M208,321.064V174.968L321.032,248L208,321.064z"/>
		</g>
	</g>
</g>
<g>
</g>
<g>
</g>
<g>
</g>
<g>
</g>
<g>
</g>
<g>
</g>
<g>
</g>
<g>
</g>
<g>
</g>
<g>
</g>
<g>
</g>
<g>
</g>
<g>
</g>
<g>
</g>
<g>
</g>
</svg>
