<svg id="Capa_1" enable-background="new 0 0 480 480" height="512" viewBox="0 0 480 480" width="512" xmlns="http://www.w3.org/2000/svg"><g><path d="m192 224c-8.491.023-16.639-3.352-22.627-9.372l-105.373-105.373v50.745c0 17.673-14.327 32-32 32s-32-14.327-32-32v-128c.02-17.665 14.335-31.98 32-32h128c17.673 0 32 14.327 32 32s-14.327 32-32 32h-50.745l105.372 105.373c12.497 12.497 12.496 32.758-.001 45.255-6.001 6.001-14.14 9.372-22.626 9.372zm-136-142.059c2.123 0 4.158.843 5.659 2.344l119.027 119.029c6.249 6.249 16.379 6.249 22.628 0s6.249-16.379 0-22.628l-119.029-119.029c-3.124-3.124-3.124-8.189 0-11.314 1.5-1.5 3.535-2.343 5.656-2.343h70.059c8.837 0 16-7.163 16-16s-7.163-16-16-16h-128c-8.832.01-15.99 7.168-16 16v128c0 8.837 7.163 16 16 16s16-7.163 16-16v-70.059c0-4.418 3.582-8 8-8z"/><path d="m288 224c-17.673 0-32-14.328-31.999-32.001 0-8.486 3.371-16.625 9.372-22.626l105.372-105.373h-50.745c-17.673 0-32-14.327-32-32s14.327-32 32-32h128c17.665.02 31.98 14.335 32 32v128c0 17.673-14.327 32-32 32s-32-14.327-32-32v-50.745l-105.373 105.372c-5.988 6.021-14.136 9.396-22.627 9.373zm32-208c-8.837 0-16 7.163-16 16s7.163 16 16 16h70.059c4.418 0 8 3.582 7.999 8.001 0 2.122-.843 4.156-2.343 5.656l-119.029 119.029c-6.248 6.249-6.248 16.379 0 22.628 6.249 6.248 16.379 6.248 22.628-.001l119.029-119.028c3.124-3.124 8.189-3.124 11.314 0 1.5 1.5 2.343 3.535 2.343 5.656v70.059c0 8.837 7.163 16 16 16s16-7.163 16-16v-128c-.01-8.832-7.168-15.99-16-16z"/><path d="m160 480h-128c-17.665-.02-31.98-14.335-32-32v-128c0-17.673 14.327-32 32-32s32 14.327 32 32v50.745l105.373-105.372c12.421-12.573 32.681-12.696 45.254-.275s12.696 32.681.275 45.254c-.091.092-.183.184-.275.275l-105.372 105.373h50.745c17.673 0 32 14.327 32 32s-14.327 32-32 32zm-128-176c-8.832.01-15.99 7.168-16 16v128c.01 8.832 7.168 15.99 16 16h128c8.837 0 16-7.163 16-16s-7.163-16-16-16h-70.059c-4.418 0-8-3.582-7.999-8.001 0-2.122.843-4.156 2.343-5.656l119.029-119.029c6.248-6.249 6.248-16.379 0-22.628-6.249-6.248-16.379-6.248-22.628 0l-119.029 119.029c-3.124 3.124-8.189 3.124-11.314 0-1.5-1.5-2.343-3.535-2.343-5.656v-70.059c-.01-8.832-7.168-15.99-16-16z"/><path d="m448 480h-128c-17.673 0-32-14.327-32-32s14.327-32 32-32h50.745l-105.372-105.373c-12.449-12.544-12.371-32.806.173-45.255 12.477-12.381 32.604-12.382 45.081 0l105.373 105.373v-50.745c0-17.673 14.327-32 32-32s32 14.327 32 32v128c-.02 17.665-14.335 31.98-32 32zm-128-48c-8.837 0-16 7.163-16 16s7.163 16 16 16h128c8.832-.01 15.99-7.168 16-16v-128c0-8.837-7.163-16-16-16s-16 7.163-16 16v70.059c0 4.418-3.582 8-8.001 7.999-2.122 0-4.156-.843-5.656-2.343l-119.029-119.029c-6.249-6.249-16.379-6.249-22.628 0s-6.249 16.379 0 22.628l119.029 119.029c3.124 3.124 3.124 8.189 0 11.314-1.5 1.5-3.535 2.343-5.656 2.343z"/></g></svg>