<svg id="Capa_1" enable-background="new 0 0 512 512" height="512" viewBox="0 0 512 512" width="512" xmlns="http://www.w3.org/2000/svg"><path d="m500.91 495.344-16.688-150.184c-2.156-19.413-15.52-35.051-33.221-40.79v-139.37c0-74.439-60.561-135-135-135h-85v-14.996c0-8.284-6.716-15-15-15h-60c-8.284 0-15 6.716-15 15v11.144l-111.626-25.76c-8.075-1.864-16.126 3.171-17.99 11.243-1.862 8.072 3.171 16.126 11.243 17.989l66.663 15.384-66.662 15.384c-8.072 1.863-13.105 9.917-11.243 17.989 1.602 6.938 7.774 11.63 14.603 11.63 1.117 0 2.252-.125 3.387-.387l111.627-25.76v25.314c-41.111 17.548-70 58.376-70 105.826v272c0 24.813 20.187 45 45 45h140c24.813 0 45-20.187 45-45v-272c0-47.45-28.889-88.278-70-105.826v-29.174h85c57.897 0 105 47.103 105 105v139.37c-17.701 5.739-31.064 21.377-33.221 40.79l-16.688 150.184c-.472 4.24.886 8.48 3.731 11.66 2.846 3.179 6.91 4.996 11.177 4.996h100c4.267 0 8.331-1.817 11.177-4.996 2.845-3.18 4.203-7.42 3.731-11.66zm-229.908-133.344h-110v-70h110zm0-100h-125c-8.284 0-15 6.716-15 15v100c0 8.284 6.716 15 15 15h125v30h-170v-190h170zm0 205c0 8.271-6.729 15-15 15h-140c-8.271 0-15-6.729-15-15v-15h170zm0-272v7h-170v-7c0-46.869 38.131-85 85-85s85 38.131 85 85zm-85-115c-5.083 0-10.089.335-15 .978v-50.974h30v50.974c-4.911-.643-9.917-.978-15-.978zm216.758 402 14.837-133.527c1.043-9.391 8.955-16.473 18.404-16.473s17.361 7.082 18.404 16.473l14.838 133.527z"/></svg>