<?xml version="1.0" encoding="iso-8859-1"?>
<!-- Generator: Adobe Illustrator 18.1.1, SVG Export Plug-In . SVG Version: 6.00 Build 0)  -->
<svg version="1.1" id="Capa_1" xmlns="http://www.w3.org/2000/svg" xmlns:xlink="http://www.w3.org/1999/xlink" x="0px" y="0px"
	 viewBox="0 0 289.341 289.341" style="enable-background:new 0 0 289.341 289.341;" xml:space="preserve">
<g>
	<path id="path5543" d="M284.743,0.002c-0.406-0.006-0.811,0.04-1.205,0.139l-56.568,14.143c-3.518,0.881-4.731,5.261-2.168,7.826
		l17.678,17.68l-51.344,51.344c-4.908,4.713,2.358,11.978,7.07,7.07l51.344-51.344l17.68,17.678c2.565,2.563,6.945,1.35,7.826-2.168
		l14.143-56.568C289.927,2.885,287.749,0.049,284.743,0.002z M4.879,0.006c-3.12-0.14-5.494,2.765-4.736,5.795L14.286,62.37
		c0.881,3.518,5.261,4.731,7.826,2.168l17.68-17.678l51.344,51.344c4.713,4.908,11.978-2.358,7.07-7.07L46.862,39.79L64.54,22.11
		c2.563-2.565,1.35-6.945-2.168-7.826L5.801,0.141C5.499,0.066,5.19,0.02,4.879,0.006z M11.084,11.083l41.027,10.256L21.34,52.11
		L11.084,11.083z M278.256,11.083L268,52.11l-30.771-30.771L278.256,11.083z M267.807,19.131c-0.226-0.006-0.451,0.018-0.67,0.072
		l-18.385,4.242c-3.249,0.75-2.124,5.623,1.125,4.873l18.385-4.244C271.15,23.452,270.76,19.216,267.807,19.131z M21.709,19.133
		c-3.053-0.122-3.616,4.292-0.631,4.941l18.385,4.244c3.249,0.75,4.374-4.123,1.125-4.873l-18.385-4.242
		C22.042,19.164,21.876,19.14,21.709,19.133z M194.618,189.618c-4.488,0.003-6.7,5.458-3.482,8.586l51.344,51.346l-17.678,17.678
		c-2.563,2.565-1.35,6.945,2.168,7.826l56.568,14.143c3.417,0.854,6.513-2.24,5.66-5.658l-14.143-56.568
		c-0.509-2.034-2.312-3.48-4.408-3.533c-1.278-0.032-2.514,0.461-3.418,1.365l-17.678,17.678l-51.346-51.346
		C197.264,190.164,195.969,189.617,194.618,189.618z M94.573,189.62c-1.299,0.039-2.532,0.582-3.438,1.514L39.79,242.479
		l-17.678-17.678c-0.892-0.892-2.106-1.385-3.367-1.367c-2.116,0.031-3.946,1.482-4.459,3.535L0.143,283.538
		c-0.853,3.417,2.241,6.511,5.658,5.658l56.57-14.143c3.518-0.881,4.731-5.261,2.168-7.826l-17.678-17.678l51.344-51.346
		C101.476,195.025,99.132,189.485,94.573,189.62z M21.34,237.229l30.771,30.77l-41.027,10.256L21.34,237.229z M268,237.229
		l10.256,41.025l-41.027-10.256L268,237.229z M40.133,260.948c-0.226-0.006-0.451,0.018-0.67,0.072l-18.385,4.242
		c-3.336,0.694-2.177,5.71,1.125,4.871l18.385-4.242C43.477,265.269,43.087,261.032,40.133,260.948z M249.383,260.95
		c-3.053-0.122-3.616,4.292-0.631,4.941l18.385,4.242c3.302,0.839,4.461-4.177,1.125-4.871l-18.385-4.242
		C249.715,260.98,249.55,260.957,249.383,260.95z"/>
</g>
<g>
</g>
<g>
</g>
<g>
</g>
<g>
</g>
<g>
</g>
<g>
</g>
<g>
</g>
<g>
</g>
<g>
</g>
<g>
</g>
<g>
</g>
<g>
</g>
<g>
</g>
<g>
</g>
<g>
</g>
</svg>
