<?xml version="1.0" encoding="iso-8859-1"?>
<!-- Generator: Adobe Illustrator 18.1.1, SVG Export Plug-In . SVG Version: 6.00 Build 0)  -->
<svg version="1.1" id="Capa_1" xmlns="http://www.w3.org/2000/svg" xmlns:xlink="http://www.w3.org/1999/xlink" x="0px" y="0px"
	 viewBox="0 0 18.285 18.285" style="enable-background:new 0 0 18.285 18.285;" xml:space="preserve">
<g>
	<g>
		<path style="fill:#030104;" d="M0.944,8.042c0.419,0,0.769-0.273,0.894-0.65c0.078,0.008,0.159,0,0.238-0.03l3.063-1.191
			l1.063,1.342C6.099,7.664,6.039,7.846,6.039,8.042c0,0.522,0.423,0.944,0.944,0.944c0.522,0,0.944-0.422,0.944-0.944
			c0-0.102-0.02-0.199-0.051-0.291l1.139-0.52c0.107,0.042,0.22,0.066,0.341,0.066c0.047,0,0.092-0.007,0.137-0.014L10.636,7.8
			c0.086,0.432,0.467,0.756,0.924,0.756c0.523,0,0.945-0.422,0.945-0.944c0-0.016-0.004-0.031-0.006-0.048l4.086-2.619
			c0.076,0.021,0.156,0.035,0.24,0.035c0.521,0,0.945-0.422,0.945-0.944s-0.424-0.944-0.945-0.944s-0.943,0.422-0.943,0.944
			c0,0.044,0.006,0.085,0.014,0.128l-4.004,2.567c-0.105-0.039-0.215-0.063-0.332-0.063c-0.201,0-0.389,0.065-0.543,0.174
			L10.285,6.51c0.01-0.052,0.018-0.104,0.018-0.158c0-0.521-0.424-0.944-0.945-0.944S8.414,5.83,8.414,6.352
			c0,0.007,0.001,0.013,0.002,0.02L7.091,6.977L6.037,5.645c0.069-0.131,0.111-0.278,0.111-0.436c0-0.521-0.422-0.944-0.944-0.944
			c-0.521,0-0.944,0.423-0.944,0.944c0,0.065,0.007,0.129,0.02,0.19L1.702,6.401c-0.028,0.011-0.055,0.025-0.08,0.041
			C1.45,6.265,1.211,6.154,0.944,6.154C0.423,6.154,0,6.577,0,7.098S0.423,8.042,0.944,8.042z"/>
		<path style="fill:#030104;" d="M17.341,7.948c-0.494,0-0.895,0.382-0.936,0.866l-4.24,1.742c-0.164-0.139-0.373-0.226-0.605-0.226
			c-0.521,0-0.943,0.423-0.943,0.944c0,0.143,0.033,0.275,0.09,0.396l-1.178,1.653c-0.057-0.011-0.113-0.017-0.172-0.017
			c-0.082,0-0.162,0.014-0.238,0.033l-1.251-1.537c0.037-0.101,0.06-0.208,0.06-0.321c0-0.521-0.422-0.944-0.944-0.944
			c-0.237,0-0.45,0.091-0.616,0.234l-1.801-0.627C4.445,9.763,4.093,9.485,3.671,9.485c-0.45,0-0.825,0.315-0.919,0.737L1.42,10.777
			c-0.14-0.082-0.3-0.133-0.475-0.133c-0.521,0-0.944,0.424-0.944,0.944c0,0.521,0.423,0.944,0.944,0.944
			c0.483,0,0.877-0.363,0.933-0.831l1.235-0.514c0.156,0.115,0.348,0.187,0.558,0.187c0.238,0,0.452-0.092,0.618-0.236l1.799,0.627
			c0.121,0.381,0.474,0.66,0.896,0.66c0.02,0,0.039-0.004,0.059-0.006l1.384,1.702c-0.005,0.043-0.013,0.084-0.013,0.128
			c0,0.521,0.423,0.944,0.944,0.944s0.945-0.423,0.945-0.944c0-0.07-0.01-0.138-0.023-0.203l1.305-1.832
			c0.416-0.01,0.76-0.287,0.877-0.667l4.441-1.825c0.131,0.069,0.279,0.113,0.439,0.113c0.521,0,0.943-0.423,0.943-0.945
			S17.862,7.948,17.341,7.948z"/>
	</g>
</g>
<g>
</g>
<g>
</g>
<g>
</g>
<g>
</g>
<g>
</g>
<g>
</g>
<g>
</g>
<g>
</g>
<g>
</g>
<g>
</g>
<g>
</g>
<g>
</g>
<g>
</g>
<g>
</g>
<g>
</g>
</svg>
