<svg height="480pt" viewBox="0 0 480 480" width="480pt" xmlns="http://www.w3.org/2000/svg"><path d="m360 64-120-64v416l120 64" fill="#bab8b9"/><path d="m360 64 120-64v416l-120 64" fill="#d9d7d8"/><path d="m120 64-120-64v416l120 64" fill="#bab8b9"/><path d="m120 64 120-64v416l-120 64" fill="#d9d7d8"/><path d="m160 416c0 8.835938-7.164062 16-16 16s-16-7.164062-16-16 7.164062-16 16-16 16 7.164062 16 16zm0 0" fill="#599072"/><path d="m192 344c0 13.253906-10.746094 24-24 24s-24-10.746094-24-24 10.746094-24 24-24 24 10.746094 24 24zm0 0" fill="#599072"/><path d="m191.183594 26.03125-71.183594 37.96875-120-64v120l32 24 16 24 24-16h32l8 32 16 24 48-64-8-40 8-40zm0 0" fill="#85b6cf"/><path d="m96 467.199219v-43.199219l-8-24-32-8v-8l-8-32 24-16h32l24-40v-32l-8-24-24-16-32 8v-32l-32 8-32-16v224zm0 0" fill="#85b6cf"/><path d="m160 120-8-40 7.398438-37.015625-39.398438 21.015625-120-64v108l16 12 16 24 24-16h32l6 24h10l8 32zm0 0" fill="#94cce7"/><path d="m104 264-8-24-17.457031-11.640625-14.542969 3.640625v-6l-24 6v-26l-8 2-8-4-16 4-8-4v212l72 38.398438v-30.398438l-8-24-32-8v-8l-8-32 24-16h32l24-40zm0 0" fill="#94cce7"/><path d="m448 128c0-28.425781-24.710938-51.078125-53.824219-47.65625-24.480469 2.878906-42.175781 25.015625-42.175781 49.671875v.183594c0 14.214843 4.207031 28.113281 12.097656 39.9375l35.902344 53.863281 35.902344-53.863281c7.890625-11.824219 12.097656-25.722657 12.097656-39.9375zm0 0" fill="#5789d6"/><path d="m416 128c0 8.835938-7.164062 16-16 16s-16-7.164062-16-16 7.164062-16 16-16 16 7.164062 16 16zm0 0" fill="#fff"/><path d="m240 136h-16v40h-40v32h40v104h16" fill="#5b6673"/><path d="m240 312h16v-40h40v-32h-40v-32h40v-32h-40v-40h-16" fill="#575c61"/><path d="m288 240h160v160h-160zm0 0" fill="#599072"/><path d="m288 256h136v144h-136zm0 0" fill="#70b48f"/><path d="m392 264v48h-48v-48h-16v112h16v-48h48v48h16v-112zm0 0" fill="#efedee"/></svg>