<svg height="480pt" viewBox="0 0 480 480" width="480pt" xmlns="http://www.w3.org/2000/svg"><path d="m216 304h-128l-88 176h480l-80-176h-136" fill="#d9d7d8"/><path d="m336 400-80 64-24-24 80-64zm0 0" fill="#85b6cf"/><path d="m136 344 136 136h-176l24-136" fill="#eebc5a"/><path d="m48 392h96l16-88h-72l-44 88zm0 0" fill="#599072"/><path d="m360 120c0-66.273438-53.726562-120-120-120s-120 53.726562-120 120c0 49.472656 29.953125 91.929688 72.703125 110.289062 18.25 59.296876 47.296875 153.710938 47.296875 153.710938l47.296875-153.710938c42.75-18.359374 72.703125-60.816406 72.703125-110.289062zm0 0" fill="#ca5057"/><path d="m312 120c0 39.765625-32.234375 72-72 72s-72-32.234375-72-72 32.234375-72 72-72 72 32.234375 72 72zm0 0" fill="#fff"/><path d="m424 480-136-120v-56h112l80 176zm0 0" fill="#5789d6"/></svg>