<?xml version="1.0"?>
<svg xmlns="http://www.w3.org/2000/svg" xmlns:xlink="http://www.w3.org/1999/xlink" xmlns:svgjs="http://svgjs.com/svgjs" version="1.1" width="512" height="512" x="0" y="0" viewBox="0 0 512 512" style="enable-background:new 0 0 512 512" xml:space="preserve" class=""><g transform="matrix(3.061616997868383e-16,-1,1,3.061616997868383e-16,-8.526512829121202e-14,511.99999999999983)">
<g xmlns="http://www.w3.org/2000/svg">
	<g>
		<g>
			<path d="M51.2,494.933c-4.625,0-9.079-0.896-13.278-2.688c-4.326-1.818-9.344,0.179-11.187,4.523     c-1.843,4.335,0.188,9.353,4.523,11.196C37.564,510.643,44.279,512,51.2,512c4.71,0,8.533-3.814,8.533-8.533     C59.733,498.748,55.91,494.933,51.2,494.933z" fill="#000000" data-original="#000000" style="" class=""/>
			<path d="M17.067,460.8v-1.22c0-4.719-3.823-8.533-8.533-8.533S0,454.861,0,459.58v1.22c0,6.409,1.169,12.655,3.473,18.577     c1.314,3.379,4.54,5.436,7.953,5.436c1.033,0,2.082-0.179,3.106-0.58c4.386-1.707,6.562-6.656,4.847-11.051     C17.843,469.248,17.067,465.084,17.067,460.8z" fill="#000000" data-original="#000000" style="" class=""/>
			<path d="M96.299,8.533C96.299,3.814,92.476,0,87.765,0H70.699c-4.71,0-8.533,3.814-8.533,8.533s3.823,8.533,8.533,8.533h17.067     C92.476,17.067,96.299,13.252,96.299,8.533z" fill="#000000" data-original="#000000" style="" class=""/>
			<path d="M8.533,433.98c4.71,0,8.533-3.814,8.533-8.533V408.38c0-4.719-3.823-8.533-8.533-8.533S0,403.661,0,408.38v17.067     C0,430.165,3.823,433.98,8.533,433.98z" fill="#000000" data-original="#000000" style="" class=""/>
			<path d="M198.699,8.533c0-4.719-3.823-8.533-8.533-8.533h-17.067c-4.71,0-8.533,3.814-8.533,8.533s3.823,8.533,8.533,8.533     h17.067C194.876,17.067,198.699,13.252,198.699,8.533z" fill="#000000" data-original="#000000" style="" class=""/>
			<path d="M147.499,8.533c0-4.719-3.823-8.533-8.533-8.533h-17.067c-4.71,0-8.533,3.814-8.533,8.533s3.823,8.533,8.533,8.533     h17.067C143.676,17.067,147.499,13.252,147.499,8.533z" fill="#000000" data-original="#000000" style="" class=""/>
			<path d="M102.4,494.933H85.333c-4.71,0-8.533,3.814-8.533,8.533c0,4.719,3.823,8.533,8.533,8.533H102.4     c4.71,0,8.533-3.814,8.533-8.533C110.933,498.748,107.11,494.933,102.4,494.933z" fill="#000000" data-original="#000000" style="" class=""/>
			<path d="M153.6,494.933h-17.067c-4.71,0-8.533,3.814-8.533,8.533c0,4.719,3.823,8.533,8.533,8.533H153.6     c4.71,0,8.533-3.814,8.533-8.533C162.133,498.748,158.31,494.933,153.6,494.933z" fill="#000000" data-original="#000000" style="" class=""/>
			<path d="M8.533,177.98c4.71,0,8.533-3.814,8.533-8.533V152.38c0-4.719-3.823-8.533-8.533-8.533S0,147.661,0,152.38v17.067     C0,174.165,3.823,177.98,8.533,177.98z" fill="#000000" data-original="#000000" style="" class=""/>
			<path d="M8.533,126.78c4.71,0,8.533-3.814,8.533-8.533V101.18c0-4.719-3.823-8.533-8.533-8.533S0,96.461,0,101.18v17.067     C0,122.965,3.823,126.78,8.533,126.78z" fill="#000000" data-original="#000000" style="" class=""/>
			<path d="M8.533,382.78c4.71,0,8.533-3.814,8.533-8.533V357.18c0-4.719-3.823-8.533-8.533-8.533S0,352.461,0,357.18v17.067     C0,378.965,3.823,382.78,8.533,382.78z" fill="#000000" data-original="#000000" style="" class=""/>
			<path d="M8.533,75.58c4.71,0,8.533-3.814,8.533-8.533l0.009-16.802c0.145-4.71-3.55-8.644-8.26-8.798     c-4.881-0.051-8.644,3.558-8.798,8.269L0,67.046C0,71.765,3.823,75.58,8.533,75.58z" fill="#000000" data-original="#000000" style="" class=""/>
			<path d="M8.533,331.58c4.71,0,8.533-3.814,8.533-8.533V305.98c0-4.719-3.823-8.533-8.533-8.533S0,301.261,0,305.98v17.067     C0,327.765,3.823,331.58,8.533,331.58z" fill="#000000" data-original="#000000" style="" class=""/>
			<path d="M8.533,280.38c4.71,0,8.533-3.814,8.533-8.533V254.78c0-4.719-3.823-8.533-8.533-8.533S0,250.061,0,254.78v17.067     C0,276.565,3.823,280.38,8.533,280.38z" fill="#000000" data-original="#000000" style="" class=""/>
			<path d="M8.533,229.18c4.71,0,8.533-3.814,8.533-8.533V203.58c0-4.719-3.823-8.533-8.533-8.533S0,198.861,0,203.58v17.067     C0,225.365,3.823,229.18,8.533,229.18z" fill="#000000" data-original="#000000" style="" class=""/>
			<path d="M39.731,19.029c4.437-1.579,6.741-6.46,5.154-10.906c-1.579-4.429-6.468-6.75-10.906-5.154     c-6.468,2.304-12.322,5.845-17.408,10.513c-3.465,3.183-3.703,8.585-0.512,12.049c1.681,1.835,3.977,2.765,6.289,2.765     c2.057,0,4.13-0.742,5.768-2.244C31.505,22.938,35.413,20.574,39.731,19.029z" fill="#000000" data-original="#000000" style="" class=""/>
			<path d="M503.467,199.927c-4.71,0-8.533,3.814-8.533,8.533v17.067c0,4.719,3.823,8.533,8.533,8.533s8.533-3.823,8.533-8.533     v-17.067C512,203.742,508.177,199.927,503.467,199.927z" fill="#000000" data-original="#000000" style="" class=""/>
			<path d="M503.467,251.128c-4.71,0-8.533,3.814-8.533,8.533v17.067c0,4.719,3.823,8.533,8.533,8.533s8.533-3.823,8.533-8.533     v-17.067C512,254.942,508.177,251.128,503.467,251.128z" fill="#000000" data-original="#000000" style="" class=""/>
			<path d="M503.467,302.328c-4.71,0-8.533,3.814-8.533,8.533v17.067c0,4.719,3.823,8.533,8.533,8.533s8.533-3.823,8.533-8.533     v-17.067C512,306.142,508.177,302.328,503.467,302.328z" fill="#000000" data-original="#000000" style="" class=""/>
			<path d="M503.467,148.727c-4.71,0-8.533,3.814-8.533,8.533v17.067c0,4.719,3.823,8.533,8.533,8.533s8.533-3.823,8.533-8.533     v-17.067C512,152.542,508.177,148.727,503.467,148.727z" fill="#000000" data-original="#000000" style="" class=""/>
			<path d="M503.467,46.327c-4.71,0-8.533,3.814-8.533,8.533v17.067c0,4.719,3.823,8.533,8.533,8.533S512,76.638,512,71.927V54.861     C512,50.142,508.177,46.327,503.467,46.327z" fill="#000000" data-original="#000000" style="" class=""/>
			<path d="M499.499,17.673c-4.523-5.205-9.933-9.387-16.094-12.425c-4.224-2.057-9.344-0.333-11.426,3.883     c-2.082,4.233-0.35,9.353,3.883,11.435c4.113,2.031,7.723,4.813,10.735,8.294c1.681,1.946,4.062,2.944,6.451,2.944     c1.98,0,3.968-0.691,5.589-2.091C502.195,26.624,502.579,21.239,499.499,17.673z" fill="#000000" data-original="#000000" style="" class=""/>
			<path d="M503.467,97.527c-4.71,0-8.533,3.814-8.533,8.533v17.067c0,4.719,3.823,8.533,8.533,8.533s8.533-3.823,8.533-8.533     v-17.067C512,101.342,508.177,97.527,503.467,97.527z" fill="#000000" data-original="#000000" style="" class=""/>
			<path d="M256,494.933h-17.067c-4.71,0-8.533,3.814-8.533,8.533c0,4.719,3.823,8.533,8.533,8.533H256     c4.71,0,8.533-3.814,8.533-8.533C264.533,498.748,260.71,494.933,256,494.933z" fill="#000000" data-original="#000000" style="" class=""/>
			<path d="M204.8,494.933h-17.067c-4.71,0-8.533,3.814-8.533,8.533c0,4.719,3.823,8.533,8.533,8.533H204.8     c4.71,0,8.533-3.814,8.533-8.533C213.333,498.748,209.51,494.933,204.8,494.933z" fill="#000000" data-original="#000000" style="" class=""/>
			<path d="M301.099,8.533c0-4.719-3.823-8.533-8.533-8.533h-17.067c-4.71,0-8.533,3.814-8.533,8.533s3.823,8.533,8.533,8.533     h17.067C297.276,17.067,301.099,13.252,301.099,8.533z" fill="#000000" data-original="#000000" style="" class=""/>
			<path d="M446.165,0h-17.067c-4.71,0-8.533,3.814-8.533,8.533s3.823,8.533,8.533,8.533h17.067c4.71,0,8.533-3.814,8.533-8.533     S450.876,0,446.165,0z" fill="#000000" data-original="#000000" style="" class=""/>
			<path d="M249.899,8.533c0-4.719-3.823-8.533-8.533-8.533h-17.067c-4.71,0-8.533,3.814-8.533,8.533s3.823,8.533,8.533,8.533     h17.067C246.076,17.067,249.899,13.252,249.899,8.533z" fill="#000000" data-original="#000000" style="" class=""/>
			<path d="M394.965,0h-17.067c-4.71,0-8.533,3.814-8.533,8.533s3.823,8.533,8.533,8.533h17.067c4.71,0,8.533-3.814,8.533-8.533     S399.676,0,394.965,0z" fill="#000000" data-original="#000000" style="" class=""/>
			<path d="M307.2,494.933h-17.067c-4.71,0-8.533,3.814-8.533,8.533c0,4.719,3.823,8.533,8.533,8.533H307.2     c4.71,0,8.533-3.814,8.533-8.533C315.733,498.748,311.91,494.933,307.2,494.933z" fill="#000000" data-original="#000000" style="" class=""/>
			<path d="M343.765,0h-17.067c-4.71,0-8.533,3.814-8.533,8.533s3.823,8.533,8.533,8.533h17.067c4.71,0,8.533-3.814,8.533-8.533     S348.476,0,343.765,0z" fill="#000000" data-original="#000000" style="" class=""/>
		</g>
	</g>
</g>
<g xmlns="http://www.w3.org/2000/svg">
	<g>
		<path d="M287.633,275.567L99.9,87.834c-3.337-3.337-8.73-3.337-12.066,0c-3.337,3.337-3.337,8.73,0,12.066l187.733,187.733    c1.664,1.664,3.849,2.5,6.033,2.5c2.185,0,4.369-0.836,6.033-2.5C290.97,284.297,290.97,278.903,287.633,275.567z" fill="#000000" data-original="#000000" style="" class=""/>
	</g>
</g>
<g xmlns="http://www.w3.org/2000/svg">
	<g>
		<path d="M196.267,85.333h-102.4c-4.71,0-8.533,3.814-8.533,8.533v102.4c0,4.719,3.823,8.533,8.533,8.533    c4.71,0,8.533-3.814,8.533-8.533V102.4h93.867c4.71,0,8.533-3.814,8.533-8.533C204.8,89.148,200.977,85.333,196.267,85.333z" fill="#000000" data-original="#000000" style="" class=""/>
	</g>
</g>
<g xmlns="http://www.w3.org/2000/svg">
	<g>
		<path d="M503.467,324.267h-128c-28.237,0-51.2,22.963-51.2,51.2v128c0,4.719,3.823,8.533,8.533,8.533h128    c28.237,0,51.2-22.963,51.2-51.2v-128C512,328.081,508.177,324.267,503.467,324.267z M494.933,460.8    c0,18.825-15.309,34.133-34.133,34.133H341.333V375.467c0-18.825,15.309-34.133,34.133-34.133h119.467V460.8z" fill="#000000" data-original="#000000" style="" class=""/>
	</g>
</g>
<g xmlns="http://www.w3.org/2000/svg">
</g>
<g xmlns="http://www.w3.org/2000/svg">
</g>
<g xmlns="http://www.w3.org/2000/svg">
</g>
<g xmlns="http://www.w3.org/2000/svg">
</g>
<g xmlns="http://www.w3.org/2000/svg">
</g>
<g xmlns="http://www.w3.org/2000/svg">
</g>
<g xmlns="http://www.w3.org/2000/svg">
</g>
<g xmlns="http://www.w3.org/2000/svg">
</g>
<g xmlns="http://www.w3.org/2000/svg">
</g>
<g xmlns="http://www.w3.org/2000/svg">
</g>
<g xmlns="http://www.w3.org/2000/svg">
</g>
<g xmlns="http://www.w3.org/2000/svg">
</g>
<g xmlns="http://www.w3.org/2000/svg">
</g>
<g xmlns="http://www.w3.org/2000/svg">
</g>
<g xmlns="http://www.w3.org/2000/svg">
</g>
</g></svg>
