<?xml version="1.0" encoding="iso-8859-1"?>
<!-- Generator: Adobe Illustrator 19.0.0, SVG Export Plug-In . SVG Version: 6.00 Build 0)  -->
<svg xmlns="http://www.w3.org/2000/svg" xmlns:xlink="http://www.w3.org/1999/xlink" version="1.1" id="Layer_1" x="0px" y="0px" viewBox="0 0 512.001 512.001" style="enable-background:new 0 0 512.001 512.001;" xml:space="preserve" width="512" height="512">
<g>
	<path style="fill:rgb(0,0,0);" d="M86.561,259.301c1.414,4.043,5.222,6.7,9.435,6.7c0.323,0,0.649-0.016,0.976-0.047   c4.589-0.448,8.277-3.975,8.929-8.539L124.84,124.84l132.575-18.939c4.564-0.652,8.091-4.34,8.539-8.929   c0.447-4.589-2.301-8.889-6.653-10.41l-246-86C9.675-0.709,5.645,0.215,2.93,2.93C0.214,5.646-0.706,9.676,0.561,13.301   L86.561,259.301z M213.976,91.904l-99.39,14.198c-4.4,0.629-7.857,4.085-8.485,8.485l-14.199,99.39L26.288,26.288L213.976,91.904z"/>
	<path style="fill:rgb(0,0,0);" d="M502.001,192.001h-120c-4.045,0-7.691,2.437-9.239,6.173c-1.548,3.737-0.691,8.038,2.168,10.898   l38.789,38.789l-61.718,61.718l-61.718-61.718l38.789-38.789c2.859-2.86,3.716-7.161,2.168-10.898   c-1.548-3.736-5.194-6.173-9.239-6.173h-120c-5.523,0-10,4.478-10,10v120c0,4.045,2.437,7.691,6.173,9.239   c3.737,1.546,8.038,0.691,10.898-2.168l38.789-38.789l61.718,61.718l-61.718,61.718l-38.789-38.789   c-2.861-2.859-7.161-3.715-10.898-2.168c-3.737,1.548-6.173,5.194-6.173,9.239v120c0,5.522,4.477,10,10,10h120   c4.045,0,7.691-2.436,9.239-6.173c1.548-3.737,0.691-8.038-2.168-10.898l-38.789-38.789l61.718-61.718l61.718,61.718L374.93,494.93   c-2.859,2.86-3.716,7.161-2.168,10.898c1.548,3.736,5.194,6.173,9.239,6.173h120c5.522,0,10-4.478,10-10v-120   c0-4.045-2.437-7.691-6.173-9.239c-3.738-1.546-8.039-0.692-10.898,2.168l-38.789,38.789l-61.718-61.718l61.718-61.718   l38.789,38.789c2.859,2.859,7.16,3.714,10.898,2.168c3.736-1.548,6.173-5.194,6.173-9.239v-120   C512.001,196.479,507.523,192.001,502.001,192.001z M492.001,297.859l-28.789-28.789c-1.876-1.875-4.419-2.929-7.071-2.929   s-5.195,1.054-7.071,2.929l-75.859,75.86c-3.905,3.905-3.905,10.237,0,14.143l75.859,75.86c1.876,1.875,4.419,2.929,7.071,2.929   s5.195-1.054,7.071-2.929l28.789-28.789v85.857h-85.857l28.789-28.789c1.875-1.876,2.929-4.419,2.929-7.071   s-1.054-5.195-2.929-7.071l-75.86-75.859c-3.906-3.904-10.236-3.904-14.143,0l-75.86,75.859c-1.875,1.876-2.929,4.419-2.929,7.071   s1.054,5.195,2.929,7.071l28.789,28.789h-85.857v-85.857l28.79,28.789c1.875,1.875,4.418,2.929,7.071,2.929   s5.195-1.054,7.071-2.929l75.859-75.86c3.905-3.905,3.905-10.237,0-14.143l-75.859-75.86c-1.876-1.875-4.419-2.929-7.071-2.929   s-5.195,1.054-7.071,2.929l-28.79,28.789v-85.857h85.857l-28.789,28.789c-1.875,1.876-2.929,4.419-2.929,7.071   s1.054,5.195,2.929,7.071l75.86,75.859c3.906,3.904,10.236,3.904,14.143,0l75.86-75.859c1.875-1.876,2.929-4.419,2.929-7.071   s-1.054-5.195-2.929-7.071l-28.789-28.789h85.857V297.859z"/>
</g>















</svg>