<svg height="60" viewBox="0 0 60 60" width="60" xmlns="http://www.w3.org/2000/svg"><g id="Page-1" fill="none" fill-rule="evenodd"><g id="015---Navigation-to-Location" fill="rgb(0,0,0)" fill-rule="nonzero" transform="translate(0 -1)"><path id="Shape" d="m59.46 43.32-3.54-9.93c-.0123446-.0416668-.0291065-.0818952-.05-.12l-5.69-15.94c-.282953-.7958378-1.03536-1.3281257-1.88-1.33h-7.4c1.3321412-2.0728568 2.0594158-4.4763263 2.1-6.94-.1253609-4.57119717-3.9285955-8.17755848-8.5-8.06-4.5714045-.11755848-8.3746391 3.48880283-8.5 8.06.0405842 2.4636737.7678588 4.8671432 2.1 6.94h-16.39c-.8483087-.0023587-1.6058188.5307039-1.89 1.33l-7.3 20.45c-.00394399.0399028-.00394399.0800972 0 .12l-1.98 5.41c-.09530705.2829388-.12605915.583626-.09.88v.08.16c.20540964.9342904 1.04365601 1.5923138 2 1.57h11.09l-12.28 13.32c-.32194217.3479493-.3553503.8741274-.08 1.26.27281816.3843093.77693996.5259633 1.21.34l17.11-7.27 17.11 7.27c.1239863.050383.2561911.0775019.39.08.3253865.0017484.6312778-.1549276.82-.42.2753503-.3858726.2419422-.9120507-.08-1.26l-12.28-13.32h32.12c.6516197-.0002772 1.2622506-.3179822 1.6364641-.8514356.3742136-.5334534.4650867-1.2157646.2435359-1.8285644zm-8.35-17.45-2.35-1 1.72-.74zm-16.61-22.87c3.4649786-.11250467 6.3697572 2.5956428 6.5 6.06 0 5.56-4.85 9.71-6.5 11-1.65-1.25-6.5-5.4-6.5-11 .1302428-3.4643572 3.0350214-6.17250467 6.5-6.06zm-.5 19.09c.3290494.2111133.7509506.2111133 1.08 0 1.6513433-1.1500843 3.1325461-2.5269296 4.4-4.09h8.33l-13.38 5.77-13.37-5.77h8.46c1.2919422 1.5687706 2.8003703 2.9458846 4.48 4.09zm-18-4.09 18 7.78c.2550505.1113131.5449495.1113131.8 0l14.11-6.08.9 2.53-4 1.71c-.3687533.1570883-.6080816.5191812-.6080816.92s.2393283.7629117.6080816.92l6.19 2.67 1.24 3.45-12.49-5.4c-.2521726-.1084252-.5378274-.1084252-.79 0l-14.8 6.37c-.3687533.1570883-.6080816.5191812-.6080816.92s.2393283.7629117.6080816.92l21.52 9.29h-6.75l-19.87-8.58c-.2550505-.1113131-.5449495-.1113131-.8 0l-16.26 7.04 1.2-3.46 7-3c.3687533-.1570883.6080816-.5191812.6080816-.92s-.2393283-.7629117-.6080816-.92l-4.56-1.97.91-2.53 8.74 3.78c.2550505.1113131.5449495.1113131.8 0l11.83-5.1c.3687533-.1570883.6080816-.5191812.6080816-.92s-.2393283-.7629117-.6080816-.92l-17.54-7.57.33-.93zm-10 16.08 2.28 1-3.14 1.33zm4.74-13.27 15.26 6.61-9.31 4-8.47-3.65zm9.18 30.84c-.2492816-.1055802-.5307184-.1055802-.78 0l-13.26 5.62 10.64-11.56 3-3.22 3 3.22 10.6 11.56zm.35-11.33c-.1895245-.2085142-.458224-.3273931-.74-.3273931s-.5504755.1188789-.74.3273931l-3.41 3.68h-10.92l15.2-6.57 15.22 6.57h-11.26zm31.46 3.68-23.65-10.21 12.27-5.28 13.84 6 3.39 9.49z"/><path id="Shape" d="m39 9.5c0-2.48528137-2.0147186-4.5-4.5-4.5s-4.5 2.01471863-4.5 4.5c0 2.4852814 2.0147186 4.5 4.5 4.5 2.4829999-.0054995 4.4945005-2.0170001 4.5-4.5zm-7 0c0-1.38071187 1.1192881-2.5 2.5-2.5s2.5 1.11928813 2.5 2.5c0 1.3807119-1.1192881 2.5-2.5 2.5s-2.5-1.1192881-2.5-2.5z"/></g></g></svg>