<?xml version="1.0" encoding="iso-8859-1"?>
<!-- Generator: Adobe Illustrator 19.0.0, SVG Export Plug-In . SVG Version: 6.00 Build 0)  -->
<svg xmlns="http://www.w3.org/2000/svg" xmlns:xlink="http://www.w3.org/1999/xlink" version="1.1" id="Layer_1" x="0px" y="0px" viewBox="0 0 512.021 512.021" style="enable-background:new 0 0 512.021 512.021;" xml:space="preserve" width="512" height="512">
<g>
	<path d="M267.01,253c5.52,0,10-4.48,10-10c0-5.52-4.48-10-10-10s-10,4.48-10,10C257.01,248.52,261.49,253,267.01,253z"/>
	<path d="M214.049,511.571c4.212,1.304,8.743-0.303,11.208-3.896L317.637,373H475.01c4.227,0,7.997-2.657,9.418-6.638   c1.421-3.981,0.186-8.426-3.085-11.102l-114.554-93.725c0.143-0.673,0.221-1.37,0.221-2.085V236c0-5.522-4.477-10-10-10   s-10,4.478-10,10v9.353L223.343,144.171c-2.991-2.447-7.124-2.951-10.615-1.298c-3.492,1.655-5.718,5.173-5.718,9.037V332h-30   c-5.523,0-10,4.478-10,10s4.477,10,10,10h30v150.02C207.01,506.401,209.863,510.273,214.049,511.571z M227.01,173.013L446.996,353   H312.37c-3.297,0-6.382,1.625-8.247,4.344L227.01,469.763V173.013z"/>
	<path d="M290.878,276.95l65.75,53.79c4.265,3.487,10.566,2.877,14.072-1.408c3.497-4.274,2.867-10.575-1.408-14.072l-65.75-53.79   c-4.275-3.494-10.575-2.866-14.072,1.408C285.973,267.152,286.604,273.453,290.878,276.95z"/>
	<path d="M51.01,0h-14c-5.523,0-10,4.478-10,10v26c0,5.522,4.477,10,10,10s10-4.478,10-10V20h4c5.523,0,10-4.478,10-10   S56.533,0,51.01,0z"/>
	<path d="M137.01,0h-40c-5.523,0-10,4.478-10,10s4.477,10,10,10h40c5.523,0,10-4.478,10-10S142.533,0,137.01,0z"/>
	<path d="M177.01,0c-5.523,0-10,4.478-10,10s4.477,10,10,10h40c5.523,0,10-4.478,10-10s-4.477-10-10-10H177.01z"/>
	<path d="M257.01,0c-5.523,0-10,4.478-10,10s4.477,10,10,10h40c5.523,0,10-4.478,10-10s-4.477-10-10-10H257.01z"/>
	<path d="M367.01,10c0-5.522-4.477-10-10-10h-20c-5.523,0-10,4.478-10,10s4.477,10,10,10h10v10c0,5.522,4.477,10,10,10   s10-4.478,10-10V10z"/>
	<path d="M37.01,126c5.523,0,10-4.478,10-10V76c0-5.522-4.477-10-10-10s-10,4.478-10,10v40C27.01,121.522,31.487,126,37.01,126z"/>
	<path d="M27.01,196c0,5.522,4.477,10,10,10s10-4.478,10-10v-40c0-5.522-4.477-10-10-10s-10,4.478-10,10V196z"/>
	<path d="M27.01,276c0,5.522,4.477,10,10,10s10-4.478,10-10v-40c0-5.522-4.477-10-10-10s-10,4.478-10,10V276z"/>
	<path d="M27.01,342c0,5.522,4.477,10,10,10h14c5.523,0,10-4.478,10-10s-4.477-10-10-10h-4v-16c0-5.522-4.477-10-10-10   s-10,4.478-10,10V342z"/>
	<path d="M137.01,332h-40c-5.523,0-10,4.478-10,10s4.477,10,10,10h40c5.523,0,10-4.478,10-10S142.533,332,137.01,332z"/>
	<path d="M367.01,76c0-5.522-4.477-10-10-10s-10,4.478-10,10v40c0,5.522,4.477,10,10,10s10-4.478,10-10V76z"/>
	<path d="M357.01,146c-5.523,0-10,4.478-10,10v40c0,5.522,4.477,10,10,10s10-4.478,10-10v-40C367.01,150.478,362.533,146,357.01,146   z"/>
</g>















</svg>
