<svg id="Outline-Expanded" enable-background="new 0 0 64 64" height="512" viewBox="0 0 64 64" width="512" xmlns="http://www.w3.org/2000/svg"><path d="m61.66 39.25-8.95-7.95-.05-.05c-.09-.08-.21-.15-.33-.19l-19.33-6.77v-8.29c0-1.65 1.35-3 3-3h4.59l-2.3 2.29 1.42 1.42 4-4c.19-.19.29-.45.29-.71s-.1-.52-.29-.71l-4-4-1.42 1.42 2.3 2.29h-4.59c-2.76 0-5 2.24-5 5v8.29l-19.33 6.77c-.12.04-.24.11-.33.19l-.05.05-8.95 7.95c-.26.23-.38.56-.33.89s.26.62.56.76l9.43 4.47v7.63c0 .4.24.77.61.92l19 8c.13.05.26.08.39.08s.26-.03.39-.08l19-8c.37-.15.61-.52.61-.92v-7.63l9.43-4.47c.3-.14.51-.43.56-.76s-.07-.66-.33-.89zm-56.87.49 7.41-6.58 17.94 7.17-8.31 7.48zm26.21 19.76-17-7.16v-6.03l7.57 3.59c.14.07.28.1.43.1.24 0 .48-.09.67-.26l8.33-7.5zm1-20.58-17.15-6.86 16.15-5.65v1.59h2v-1.59l16.15 5.65zm18 13.42-17 7.16v-17.26l8.33 7.5c.19.17.43.26.67.26.15 0 .29-.03.43-.1l7.57-3.59zm-7.83-4.53-8.31-7.48 17.94-7.17 7.41 6.58z"/><path d="m61.35 5.06-8-3c-.23-.08-.47-.08-.7 0l-8 3c-.39.15-.65.52-.65.94v10c0 .42.26.79.65.94l8 3c.11.04.23.06.35.06s.24-.02.35-.06l8-3c.39-.15.65-.52.65-.94v-10c0-.42-.26-.79-.65-.94zm-9.35 12.5-6-2.25v-7.86l6 2.25zm1-9.63-5.15-1.93 5.15-1.93 5.15 1.93zm7 7.38-6 2.25v-7.86l6-2.25z"/><path d="m31 30h2v2h-2z"/><path d="m31 34h2v2h-2z"/></svg>